<svg width="156" height="54" viewBox="0 0 156 54" fill="none" xmlns="http://www.w3.org/2000/svg">
<circle cx="129" cy="27" r="27" fill="#65B59D"/>
<path d="M142.254 28.0607C142.84 27.4749 142.84 26.5251 142.254 25.9393L132.708 16.3934C132.122 15.8076 131.173 15.8076 130.587 16.3934C130.001 16.9792 130.001 17.9289 130.587 18.5147L139.072 27L130.587 35.4853C130.001 36.0711 130.001 37.0208 130.587 37.6066C131.173 38.1924 132.122 38.1924 132.708 37.6066L142.254 28.0607ZM113.323 28.5H141.194V25.5H113.323V28.5Z" fill="white"/>
<path d="M0.504 27.978C0.504 26.934 0.714 26.022 1.134 25.242C1.566 24.462 2.16 23.862 2.916 23.442C3.684 23.022 4.56 22.812 5.544 22.812C6.804 22.812 7.854 23.142 8.694 23.802C9.546 24.462 10.104 25.392 10.368 26.592H7.092C6.816 25.824 6.282 25.44 5.49 25.44C4.926 25.44 4.476 25.662 4.14 26.106C3.804 26.538 3.636 27.162 3.636 27.978C3.636 28.794 3.804 29.424 4.14 29.868C4.476 30.3 4.926 30.516 5.49 30.516C6.282 30.516 6.816 30.132 7.092 29.364H10.368C10.104 30.54 9.546 31.464 8.694 32.136C7.842 32.808 6.792 33.144 5.544 33.144C4.56 33.144 3.684 32.934 2.916 32.514C2.16 32.094 1.566 31.494 1.134 30.714C0.714 29.934 0.504 29.022 0.504 27.978ZM16.5864 33.144C15.6024 33.144 14.7144 32.934 13.9224 32.514C13.1424 32.094 12.5244 31.494 12.0684 30.714C11.6244 29.934 11.4024 29.022 11.4024 27.978C11.4024 26.946 11.6304 26.04 12.0864 25.26C12.5424 24.468 13.1664 23.862 13.9584 23.442C14.7504 23.022 15.6384 22.812 16.6224 22.812C17.6064 22.812 18.4944 23.022 19.2864 23.442C20.0784 23.862 20.7024 24.468 21.1584 25.26C21.6144 26.04 21.8424 26.946 21.8424 27.978C21.8424 29.01 21.6084 29.922 21.1404 30.714C20.6844 31.494 20.0544 32.094 19.2504 32.514C18.4584 32.934 17.5704 33.144 16.5864 33.144ZM16.5864 30.48C17.1744 30.48 17.6724 30.264 18.0804 29.832C18.5004 29.4 18.7104 28.782 18.7104 27.978C18.7104 27.174 18.5064 26.556 18.0984 26.124C17.7024 25.692 17.2104 25.476 16.6224 25.476C16.0224 25.476 15.5244 25.692 15.1284 26.124C14.7324 26.544 14.5344 27.162 14.5344 27.978C14.5344 28.782 14.7264 29.4 15.1104 29.832C15.5064 30.264 15.9984 30.48 16.5864 30.48ZM36.2914 22.848C37.5394 22.848 38.5294 23.226 39.2614 23.982C40.0054 24.738 40.3774 25.788 40.3774 27.132V33H37.3174V27.546C37.3174 26.898 37.1434 26.4 36.7954 26.052C36.4594 25.692 35.9914 25.512 35.3914 25.512C34.7914 25.512 34.3174 25.692 33.9694 26.052C33.6334 26.4 33.4654 26.898 33.4654 27.546V33H30.4054V27.546C30.4054 26.898 30.2314 26.4 29.8834 26.052C29.5474 25.692 29.0794 25.512 28.4794 25.512C27.8794 25.512 27.4054 25.692 27.0574 26.052C26.7214 26.4 26.5534 26.898 26.5534 27.546V33H23.4754V22.956H26.5534V24.216C26.8654 23.796 27.2734 23.466 27.7774 23.226C28.2814 22.974 28.8514 22.848 29.4874 22.848C30.2434 22.848 30.9154 23.01 31.5034 23.334C32.1034 23.658 32.5714 24.12 32.9074 24.72C33.2554 24.168 33.7294 23.718 34.3294 23.37C34.9294 23.022 35.5834 22.848 36.2914 22.848ZM51.9981 27.816C51.9981 28.104 51.9801 28.404 51.9441 28.716H44.9781C45.0261 29.34 45.2241 29.82 45.5721 30.156C45.9321 30.48 46.3701 30.642 46.8861 30.642C47.6541 30.642 48.1881 30.318 48.4881 29.67H51.7641C51.5961 30.33 51.2901 30.924 50.8461 31.452C50.4141 31.98 49.8681 32.394 49.2081 32.694C48.5481 32.994 47.8101 33.144 46.9941 33.144C46.0101 33.144 45.1341 32.934 44.3661 32.514C43.5981 32.094 42.9981 31.494 42.5661 30.714C42.1341 29.934 41.9181 29.022 41.9181 27.978C41.9181 26.934 42.1281 26.022 42.5481 25.242C42.9801 24.462 43.5801 23.862 44.3481 23.442C45.1161 23.022 45.9981 22.812 46.9941 22.812C47.9661 22.812 48.8301 23.016 49.5861 23.424C50.3421 23.832 50.9301 24.414 51.3501 25.17C51.7821 25.926 51.9981 26.808 51.9981 27.816ZM48.8481 27.006C48.8481 26.478 48.6681 26.058 48.3081 25.746C47.9481 25.434 47.4981 25.278 46.9581 25.278C46.4421 25.278 46.0041 25.428 45.6441 25.728C45.2961 26.028 45.0801 26.454 44.9961 27.006H48.8481ZM57.9959 30.516C58.7879 30.516 59.3219 30.132 59.5979 29.364H62.8739C62.6459 30.384 62.1899 31.218 61.5059 31.866C60.8219 32.514 59.9699 32.916 58.9499 33.072V33.738C59.5739 33.738 60.1199 33.906 60.5879 34.242C61.0559 34.59 61.2899 35.106 61.2899 35.79C61.2899 36.474 61.0439 36.99 60.5519 37.338C60.0599 37.698 59.4719 37.878 58.7879 37.878H56.0159V36.186H58.3739C58.6139 36.186 58.7939 36.15 58.9139 36.078C59.0339 36.006 59.0939 35.886 59.0939 35.718C59.0939 35.55 59.0339 35.43 58.9139 35.358C58.7939 35.298 58.6139 35.268 58.3739 35.268H57.0959V33.072C55.8599 32.88 54.8699 32.334 54.1259 31.434C53.3819 30.522 53.0099 29.37 53.0099 27.978C53.0099 26.934 53.2199 26.022 53.6399 25.242C54.0719 24.462 54.6659 23.862 55.4219 23.442C56.1899 23.022 57.0659 22.812 58.0499 22.812C59.3099 22.812 60.3599 23.142 61.1999 23.802C62.0519 24.462 62.6099 25.392 62.8739 26.592H59.5979C59.3219 25.824 58.7879 25.44 57.9959 25.44C57.4319 25.44 56.9819 25.662 56.6459 26.106C56.3099 26.538 56.1419 27.162 56.1419 27.978C56.1419 28.794 56.3099 29.424 56.6459 29.868C56.9819 30.3 57.4319 30.516 57.9959 30.516ZM63.9083 27.96C63.9083 26.928 64.1003 26.022 64.4843 25.242C64.8803 24.462 65.4143 23.862 66.0863 23.442C66.7583 23.022 67.5083 22.812 68.3363 22.812C69.0443 22.812 69.6623 22.956 70.1903 23.244C70.7303 23.532 71.1443 23.91 71.4323 24.378V22.956H74.5103V33H71.4323V31.578C71.1323 32.046 70.7123 32.424 70.1723 32.712C69.6443 33 69.0263 33.144 68.3183 33.144C67.5023 33.144 66.7583 32.934 66.0863 32.514C65.4143 32.082 64.8803 31.476 64.4843 30.696C64.1003 29.904 63.9083 28.992 63.9083 27.96ZM71.4323 27.978C71.4323 27.21 71.2163 26.604 70.7843 26.16C70.3643 25.716 69.8483 25.494 69.2363 25.494C68.6243 25.494 68.1023 25.716 67.6703 26.16C67.2503 26.592 67.0403 27.192 67.0403 27.96C67.0403 28.728 67.2503 29.34 67.6703 29.796C68.1023 30.24 68.6243 30.462 69.2363 30.462C69.8483 30.462 70.3643 30.24 70.7843 29.796C71.2163 29.352 71.4323 28.746 71.4323 27.978ZM79.8151 24.63C80.1751 24.078 80.6251 23.646 81.1651 23.334C81.7051 23.01 82.3051 22.848 82.9651 22.848V26.106H82.1191C81.3511 26.106 80.7751 26.274 80.3911 26.61C80.0071 26.934 79.8151 27.51 79.8151 28.338V33H76.7371V22.956H79.8151V24.63ZM88.4863 19.914L88.1263 28.536H85.5163L85.1563 19.914H88.4863ZM86.8663 33.144C86.3263 33.144 85.8823 32.988 85.5343 32.676C85.1983 32.352 85.0303 31.956 85.0303 31.488C85.0303 31.008 85.1983 30.606 85.5343 30.282C85.8823 29.958 86.3263 29.796 86.8663 29.796C87.3943 29.796 87.8263 29.958 88.1623 30.282C88.5103 30.606 88.6843 31.008 88.6843 31.488C88.6843 31.956 88.5103 32.352 88.1623 32.676C87.8263 32.988 87.3943 33.144 86.8663 33.144Z" fill="#65B59D"/>
</svg>
