<svg width="110" height="43" viewBox="0 0 110 43" fill="none" xmlns="http://www.w3.org/2000/svg">
<circle cx="21.5" cy="21.5" r="21.5" transform="rotate(180 21.5 21.5)" fill="#65B59D"/>
<path d="M10.7297 20.4393C10.1439 21.0251 10.1439 21.9749 10.7297 22.5607L20.2756 32.1066C20.8614 32.6924 21.8112 32.6924 22.3969 32.1066C22.9827 31.5208 22.9827 30.5711 22.3969 29.9853L13.9117 21.5L22.3969 13.0147C22.9827 12.4289 22.9827 11.4792 22.3969 10.8934C21.8112 10.3076 20.8614 10.3076 20.2756 10.8934L10.7297 20.4393ZM33.9839 20L11.7903 20L11.7903 23L33.9839 23L33.9839 20Z" fill="white"/>
<path d="M59.634 25.12L61.812 17.956H65.088L61.524 28H57.726L54.162 17.956H57.456L59.634 25.12ZM70.9556 28.144C69.9716 28.144 69.0836 27.934 68.2916 27.514C67.5116 27.094 66.8936 26.494 66.4376 25.714C65.9936 24.934 65.7716 24.022 65.7716 22.978C65.7716 21.946 65.9996 21.04 66.4556 20.26C66.9116 19.468 67.5356 18.862 68.3276 18.442C69.1196 18.022 70.0076 17.812 70.9916 17.812C71.9756 17.812 72.8636 18.022 73.6556 18.442C74.4476 18.862 75.0716 19.468 75.5276 20.26C75.9836 21.04 76.2116 21.946 76.2116 22.978C76.2116 24.01 75.9776 24.922 75.5096 25.714C75.0536 26.494 74.4236 27.094 73.6196 27.514C72.8276 27.934 71.9396 28.144 70.9556 28.144ZM70.9556 25.48C71.5436 25.48 72.0416 25.264 72.4496 24.832C72.8696 24.4 73.0796 23.782 73.0796 22.978C73.0796 22.174 72.8756 21.556 72.4676 21.124C72.0716 20.692 71.5796 20.476 70.9916 20.476C70.3916 20.476 69.8936 20.692 69.4976 21.124C69.1016 21.544 68.9036 22.162 68.9036 22.978C68.9036 23.782 69.0956 24.4 69.4796 24.832C69.8756 25.264 70.3676 25.48 70.9556 25.48ZM80.9225 14.68V28H77.8445V14.68H80.9225ZM88.7511 25.39V28H87.1851C86.0691 28 85.1991 27.73 84.5751 27.19C83.9511 26.638 83.6391 25.744 83.6391 24.508V20.512H82.4151V17.956H83.6391V15.508H86.7171V17.956H88.7331V20.512H86.7171V24.544C86.7171 24.844 86.7891 25.06 86.9331 25.192C87.0771 25.324 87.3171 25.39 87.6531 25.39H88.7511ZM89.8536 22.96C89.8536 21.928 90.0456 21.022 90.4296 20.242C90.8256 19.462 91.3596 18.862 92.0316 18.442C92.7036 18.022 93.4536 17.812 94.2816 17.812C94.9896 17.812 95.6076 17.956 96.1356 18.244C96.6756 18.532 97.0896 18.91 97.3776 19.378V17.956H100.456V28H97.3776V26.578C97.0776 27.046 96.6576 27.424 96.1176 27.712C95.5896 28 94.9716 28.144 94.2636 28.144C93.4476 28.144 92.7036 27.934 92.0316 27.514C91.3596 27.082 90.8256 26.476 90.4296 25.696C90.0456 24.904 89.8536 23.992 89.8536 22.96ZM97.3776 22.978C97.3776 22.21 97.1616 21.604 96.7296 21.16C96.3096 20.716 95.7936 20.494 95.1816 20.494C94.5696 20.494 94.0476 20.716 93.6156 21.16C93.1956 21.592 92.9856 22.192 92.9856 22.96C92.9856 23.728 93.1956 24.34 93.6156 24.796C94.0476 25.24 94.5696 25.462 95.1816 25.462C95.7936 25.462 96.3096 25.24 96.7296 24.796C97.1616 24.352 97.3776 23.746 97.3776 22.978ZM105.76 19.63C106.12 19.078 106.57 18.646 107.11 18.334C107.65 18.01 108.25 17.848 108.91 17.848V21.106H108.064C107.296 21.106 106.72 21.274 106.336 21.61C105.952 21.934 105.76 22.51 105.76 23.338V28H102.682V17.956H105.76V19.63Z" fill="#65B59D"/>
</svg>
